<svg width="25" height="24" viewBox="0 0 25 24" fill="none" xmlns="http://www.w3.org/2000/svg">
<path d="M6.5 20.05V20C6.5 18.9391 6.92143 17.9217 7.67157 17.1716C8.42172 16.4214 9.43913 16 10.5 16H14.5C15.5609 16 16.5783 16.4214 17.3284 17.1716C18.0786 17.9217 18.5 18.9391 18.5 20V20.05M12.5 13C13.2956 13 14.0587 12.6839 14.6213 12.1213C15.1839 11.5587 15.5 10.7956 15.5 10C15.5 9.20435 15.1839 8.44129 14.6213 7.87868C14.0587 7.31607 13.2956 7 12.5 7C11.7044 7 10.9413 7.31607 10.3787 7.87868C9.81607 8.44129 9.5 9.20435 9.5 10C9.5 10.7956 9.81607 11.5587 10.3787 12.1213C10.9413 12.6839 11.7044 13 12.5 13ZM12.5 3C19.7 3 21.5 4.8 21.5 12C21.5 19.2 19.7 21 12.5 21C5.3 21 3.5 19.2 3.5 12C3.5 4.8 5.3 3 12.5 3Z" stroke="white" stroke-width="2" stroke-linecap="round" stroke-linejoin="round"/>
</svg>
