<svg width="40" height="40" viewBox="0 0 40 40" fill="none" xmlns="http://www.w3.org/2000/svg">
<path d="M0 14C0 6.26801 6.26801 0 14 0H26C33.732 0 40 6.26801 40 14V26C40 33.732 33.732 40 26 40H14C6.26801 40 0 33.732 0 26V14Z" fill="white" fill-opacity="0.4"/>
<path d="M20 25L14 29V15C14 13.9391 14.4214 12.9217 15.1716 12.1716C15.9217 11.4214 16.9391 11 18 11H22C23.0609 11 24.0783 11.4214 24.8284 12.1716C25.5786 12.9217 26 13.9391 26 15V20M24 27H30M27 24V30" stroke="white" stroke-width="2" stroke-linecap="round" stroke-linejoin="round"/>
</svg>
