<svg width="40" height="40" viewBox="0 0 40 40" fill="none" xmlns="http://www.w3.org/2000/svg">
<path d="M0 14C0 6.26801 6.26801 0 14 0H26C33.732 0 40 6.26801 40 14V26C40 33.732 33.732 40 26 40H14C6.26801 40 0 33.732 0 26V14Z" fill="#F43F5E"/>
<path d="M22 10C23.3261 10 24.5979 10.5268 25.5355 11.4645C26.4732 12.4021 27 13.6739 27 15V29C27 29.181 26.9509 29.3587 26.8579 29.514C26.7648 29.6693 26.6314 29.7965 26.4718 29.8819C26.3121 29.9673 26.1323 30.0078 25.9515 29.999C25.7707 29.9902 25.5956 29.9325 25.445 29.832L20 26.202L14.556 29.832C14.4133 29.9275 14.2484 29.9847 14.0772 29.9979C13.906 30.0112 13.7343 29.9802 13.5785 29.9079C13.4228 29.8355 13.2883 29.7243 13.188 29.5849C13.0878 29.4455 13.0251 29.2827 13.006 29.112L13 29V15C13 13.6739 13.5268 12.4021 14.4645 11.4645C15.4021 10.5268 16.6739 10 18 10H22Z" fill="white"/>
</svg>
