<svg width="156" height="140" viewBox="0 0 156 140" fill="none" xmlns="http://www.w3.org/2000/svg">
<path d="M66.3902 8.1951C55.5317 9.52681 45.0146 13.4195 36.3073 19.2927C32.6536 21.7853 26.9853 26.2585 27.1902 26.4975C27.4975 26.7707 39.1073 25.5756 40.678 25.0975C41.6341 24.8244 43.239 23.9707 44.2292 23.2195C46.039 21.8536 46.0731 21.8536 49.1122 21.8536C52.117 21.8536 52.2195 21.8195 56.4536 19.839C60.0048 18.2 75.4731 11.9171 82.2341 9.35608L83.9073 8.74144L82.917 8.43412C81.4829 8.02437 69.3951 7.85364 66.3902 8.1951Z" fill="white"/>
<path d="M82.6097 11.0976C79.9805 12.0536 76.6 13.3171 75.0976 13.8634L72.3658 14.8537L76.2927 15.0585L80.2195 15.2634L91.8293 19.6C98.2146 21.9902 106.205 24.961 109.585 26.1561C112.966 27.3854 116.312 28.5805 117.063 28.8878L118.361 29.4L116.995 27.8293C116.244 26.9756 114.707 24.7219 113.58 22.7756C112.42 20.8293 111.224 19.0195 110.883 18.7122C109.654 17.6195 103.337 14.2732 100.024 13.0097C96.3024 11.5415 91.6585 10.1073 89.0293 9.62926C87.4927 9.35609 87.0146 9.45853 82.6097 11.0976Z" fill="white"/>
<path d="M68.439 18.3707C65.3999 19.3951 63.7951 20.3854 61.3707 22.639L59.117 24.7902L61.3707 26.0878C64.9902 28.2049 69.8048 31.9951 74.278 36.1951C77.2146 38.961 78.6487 40.0878 79.1268 40.0195C79.5365 39.9854 81.3804 39.2341 83.2585 38.3463C87.2877 36.5024 91.5902 35.239 94.7316 35C95.9609 34.8976 97.7365 34.7268 98.6926 34.6585C101.288 34.4537 107.502 35.0683 110.61 35.8537C116.176 37.2537 121.434 40.7366 123.415 44.2878L124.132 45.5854L123.927 42.6146C123.722 39.2 122.39 34.5902 121.263 33.2927C120.444 32.3707 115.493 30.6293 110.61 29.5024C109.107 29.1951 107.639 28.7171 107.366 28.5122C105.556 27.1463 101.219 26.4976 97.0877 26.9756L94.2877 27.2829L91.7267 24.8927C88.7219 22.0927 85.5121 20.1122 82.0292 18.8488C78.6487 17.6537 71.3755 17.4146 68.439 18.3707ZM83.395 26.4634L87.0146 30.0829L82.917 32.4732C80.6975 33.8049 78.6487 34.9658 78.4097 35.0683C78.2048 35.1707 76.7024 34.0097 75.0975 32.4732C73.4926 30.9707 71.3414 29.0927 70.317 28.2732C69.0536 27.2829 68.5755 26.7024 68.7804 26.4293C69.7707 25.2683 75.8146 23.2878 79.5024 22.9122C79.6731 22.878 81.4146 24.4829 83.395 26.4634Z" fill="white"/>
<path d="M44.7414 25.0976C40.6439 29.3659 38.0488 36.8439 37.9463 44.7317C37.9122 48.4537 38.2878 51.9024 38.6975 51.9024C38.8341 51.9024 40.1658 51.2195 41.6683 50.4C43.1366 49.5463 44.7756 48.6244 45.3219 48.3512C46.2097 47.8732 46.2439 47.7366 46.2439 45.1756C46.278 41.9659 46.8585 39.3024 48.2244 36.4341C49.1463 34.4878 50.4097 32.7805 50.9219 32.7805C51.0244 32.7805 51.9463 33.2585 52.9707 33.839L54.7805 34.8976L53.7561 36.6732C51.8097 40.122 50 46.0293 50 49.0341V50.1951H52.2195C54.3366 50.1951 54.439 50.161 54.439 49.3756C54.439 47.6 57.7512 37.9024 58.5024 37.4244C58.7756 37.2537 64.4439 41.1463 64.5805 41.5902C64.6487 41.7268 63.4195 43.2976 61.8487 45.0732C58.9122 48.4878 53.4829 55.2146 51.1609 58.322C49.5561 60.5073 49.5219 60.5073 47.917 55.3171C46.7902 51.561 46.7561 51.5268 45.8341 51.6976C44.5707 51.9366 40.5756 53.9171 39.9268 54.6341C39.4829 55.1463 39.4829 55.4195 39.9609 57.2293C41.1902 62.0439 43.8878 67.0293 47.1317 70.6829L49.2146 73.0049L50 71.0927C50.8536 69.0439 51.8097 67.7805 57.9902 60.6098C65.3658 52.0049 70.0439 46.9854 73.1512 44.3561L74.9609 42.7854L73.3902 40.7024C71.3756 38.039 66.5609 33.4976 63.078 30.9707C58.1268 27.4195 52.3902 24.7561 47.9853 23.9707L46.1414 23.6293L44.7414 25.0976Z" fill="white"/>
<path d="M120.922 27.2147C122.424 29.161 123.517 31.2439 124.883 34.6927C126.624 38.9951 127.205 42.0342 127.512 48.1464C127.751 53.3366 127.785 53.5415 129.493 58.322C131.098 62.7951 135.605 77 137.483 83.4195C138.371 86.561 138.439 86.4927 139.532 80.6195C140.556 75.122 140.556 66.0732 139.532 60.4391C137.346 48.283 132.019 38.1073 122.766 28.2732C120.444 25.7805 119.317 25.1659 120.922 27.2147Z" fill="white"/>
<path d="M34.2926 28.3415C33.2341 28.478 31.4926 28.8878 30.3658 29.2634C29.239 29.6732 27.2585 30.0829 25.9951 30.2195C23.3658 30.4927 23.3317 30.5268 20.3268 34.4878C17.6975 37.9707 16.8097 39.4049 14.6585 43.5366C10.3219 51.9366 8.37558 60.5415 8.34143 71.2976C8.34143 77.6488 8.88777 81.8146 10.3902 87.2439C12.4731 94.6195 15.717 101.107 20.6 107.698C23.7414 111.966 27.9073 116.302 27.6341 115.073C27.5317 114.595 26.0975 108.21 24.4244 100.902C20.1219 82.1902 18.2439 72.1512 18.2439 68.0195C18.2439 64.4683 20.2926 58.1854 23.9805 50.5366C24.9024 48.5561 25.9951 46.6439 26.4048 46.3024L27.1219 45.6536L27.1561 48.0097C27.1561 49.3073 27.4292 51.4244 27.7707 52.7561L28.4195 55.1463L26.3707 57.3317C22.3756 61.5658 20.8048 64.9122 20.839 68.9756C20.839 72.4927 21.6585 74.678 23.7756 77C24.7317 78.0585 25.5512 78.8439 25.6195 78.7756C25.6878 78.7073 25.5853 78.0585 25.3805 77.3415C24.8683 75.4976 25.4146 73.2439 27.1561 69.8293C29.1707 65.9024 31.5951 62.5561 34.2244 60.0293L36.5122 57.8097L35.9317 55.7951C34.5658 51.2878 33.917 47.2585 33.8487 43.3658C33.7805 38.3805 34.2244 36.9463 37.5707 32.0293C38.9707 29.9805 40.0975 28.2732 40.0975 28.1707C40.0975 27.9317 36.5805 28.0341 34.2926 28.3415Z" fill="white"/>
<path d="M91.4877 38.5853C83.9414 40.4975 78.7853 43.2293 72.3316 48.761L70.9999 49.9219L78.5121 49.7171C97.0877 49.2049 99.1707 49.1024 99.1707 48.6585C99.1707 46.7463 96.0633 37.5268 95.4487 37.5951C95.3463 37.5951 93.5707 38.039 91.4877 38.5853Z" fill="white"/>
<path d="M99.5121 38.3122C99.5121 38.6195 101.049 42.3415 101.732 43.6732C102.654 45.5171 104.634 47.4634 106.683 48.4878C107.434 48.8634 109.483 49.5805 111.224 50.0244C118.19 51.8341 121.434 53.3366 124.098 56C125.122 57.0244 126.146 58.1854 126.385 58.561C127.478 60.439 125.805 52.2097 124.541 49.5805C122.083 44.3561 115.151 40.4293 105.522 38.7561C102.893 38.3122 99.5121 38.0732 99.5121 38.3122Z" fill="white"/>
<path d="M90.7365 51.8C89.7463 51.8683 88.9268 52.0732 88.9268 52.2439C88.9268 52.4146 90.0878 54.5658 91.4878 57.0244C92.9219 59.4829 94.6975 62.761 95.4487 64.2975C97.6341 68.6 99.2048 70.6146 102.927 73.7219C106.99 77.1707 109.21 79.8341 111.258 83.6927C113.717 88.3366 114.98 92.9122 115.424 98.5463C115.595 101.107 115.527 102.029 114.912 104.317C113.888 107.971 112.385 110.702 110.302 112.58C108.356 114.356 99.1024 119 85.6829 124.976C79.8097 127.605 77.7609 128.185 74.3805 128.151C72.0244 128.117 71.2048 127.946 68.5756 126.854C63.8975 124.941 53.5853 119.546 49.7609 117.02C46.8585 115.107 45.5268 114.493 41.4292 113.161C33.1317 110.463 32.039 109.746 29.8878 105.751C28.8292 103.805 28.8975 103.224 29.9902 104.454C31.3219 105.922 38.9024 108.995 44.878 110.498C46.6536 110.941 49.5219 111.42 51.1951 111.522L54.2683 111.761L55.2926 113.4C56.4878 115.38 59.7658 118.829 61.8487 120.263C64.239 121.902 67.4146 123.166 70.4536 123.746C77.078 125.01 82.6439 123.849 87.4244 120.161C88.9609 119 89.678 118.215 92.1024 115.176L92.717 114.424L88.6195 112.341C84.1122 110.054 78.8536 106.434 74.9609 102.985C73.5609 101.756 72.2292 100.732 71.9902 100.732C71.7512 100.732 70.317 101.278 68.8487 101.927C65.8439 103.224 63.0097 104.044 60.3463 104.351L58.5707 104.59L58.0244 103.259C56.8292 100.356 56.6926 100.527 60.8244 100.083C67.7561 99.2976 72.1268 98.1366 74.8926 96.3268C76.7024 95.0975 80.8341 91.478 80.5951 91.2732C80.5268 91.1707 75.0292 91.5463 68.439 92.0585C57.9219 92.878 55.9414 92.9463 52.6292 92.639C50.5122 92.4341 48.7365 92.3317 48.6683 92.4C48.3951 92.6732 49.3853 98.1366 50.239 101.039C50.717 102.644 51.1951 104.249 51.2975 104.59C51.4341 105.171 51.2975 105.205 49.4536 105C43.1365 104.249 33.2 99.5707 28.1122 94.9951L26.3365 93.3902L26.5073 97.0439C26.678 100.049 26.8487 100.937 27.5658 102.337C28.6244 104.283 29.8536 108.722 31.0487 114.868C31.5268 117.327 31.9024 119.341 31.9024 119.376C31.9024 119.41 33.4731 120.502 35.4195 121.834C57.2048 136.654 85.3756 138.122 107.878 125.624C109.585 124.702 111.976 123.166 113.273 122.244C115.493 120.605 115.629 120.4 117.746 116.029C121.468 108.415 122.629 103.224 122.288 95.678C121.946 87.5512 119.419 80.961 114.776 75.9073L113.478 74.5073L115.561 71.6732C116.722 70.1024 118.293 67.7122 119.044 66.3463C120.205 64.2293 120.478 63.9219 120.956 64.2634C122.015 64.9122 124.61 68.3268 124.507 68.9073C124.439 69.2146 123.551 71.2293 122.493 73.3122L120.615 77.1366L122.254 79.1854C123.176 80.3122 124.746 82.5658 125.737 84.2049C127.41 87.0049 127.512 87.3122 127.512 89.4976C127.512 93.1171 124.61 106.571 122.561 112.478L121.741 114.834L124.371 112C128.093 108.005 131.268 103.566 133.556 99.1951L135.502 95.439V90.4878C135.502 86.5951 135.332 84.7854 134.717 82.1219C134 78.9805 131.951 72.9024 130.073 68.2244C126.829 60.2341 118.395 54.5317 106.854 52.5854C103.098 51.9707 94.117 51.5268 90.7365 51.8ZM105.761 57.1951C107.571 57.639 110.029 58.4244 111.293 58.9366L113.512 59.8244L112.078 62.5219C110.678 65.1512 106.99 70.4097 106.376 70.6146C105.898 70.7854 104.771 67.6439 103.473 62.3854C102.756 59.5854 102.107 57.0927 102.005 56.8195C101.766 56.1707 101.971 56.2049 105.761 57.1951ZM79.7414 111.556C80.6634 112.205 81.4146 112.854 81.4146 113.024C81.4146 113.912 75.8829 117.976 73.5609 118.829C72.4341 119.205 72.2292 119.171 70.1463 117.941C67.8244 116.576 62.6341 111.693 62.6341 110.907C62.6341 110.634 63.6244 110.02 64.8195 109.473C66.0146 108.961 68.2 107.8 69.6683 106.878L72.3317 105.239L75.2 107.8C76.7707 109.2 78.8195 110.873 79.7414 111.556Z" fill="white"/>
<path d="M34.3609 62.8975C33.1999 64.0244 32.2438 65.1512 32.2438 65.3561C32.2438 65.561 33.0975 66.9951 34.156 68.5658L36.0682 71.3658L35.1121 72.561C32.278 76.0439 30.0926 79.3561 28.4877 82.5658C25.9951 87.6536 25.9609 87.8585 28.1804 90.2829C31.6292 94.0731 36.9219 97.1122 43.0682 98.8195C47.0975 99.9463 47.0634 99.9463 46.7902 98.5463C45.9024 93.8341 44.5024 91.9219 40.3707 89.8049C37.2634 88.2 33.2682 85.5024 33.2682 85.0244C33.2682 83.8634 37.6048 77.9902 40.4048 75.361C41.7707 74.0634 42.2829 73.7902 42.7268 74.0634C43.717 74.5756 44.8097 75.9073 45.3902 77.2732C46.0048 78.7756 46.4829 82.9756 46.039 82.9756C45.8682 82.9756 44.6048 82.361 43.239 81.6097C41.8731 80.8585 40.6097 80.2439 40.4731 80.2439C40.3024 80.2439 39.6195 81.0634 38.9365 82.0195L37.6731 83.8292L38.4585 84.478C40.1999 85.878 44.2292 87.6536 48.4634 88.8488C51.1268 89.6 62.6341 90.1805 62.6341 89.5658C62.6341 89.3951 61.917 88.7122 61.0292 88.0975C59.2536 86.8341 42.317 70.0341 40.5756 67.7805C39.4487 66.3463 37.0243 61.839 37.0243 61.1561C37.0243 60.4049 36.4438 60.8146 34.3609 62.8975Z" fill="white"/>
<path d="M85.8545 76.5228C84.847 76.5228 83.9826 76.3584 83.2614 76.0296C82.5508 75.7008 81.9939 75.2182 81.5909 74.5818C81.1985 73.9455 80.9811 73.1553 80.9386 72.2114C80.928 71.7765 80.9227 71.3099 80.9227 70.8114C80.9227 70.3129 80.928 69.8356 80.9386 69.3796C80.9811 68.4568 81.2038 67.6773 81.6068 67.0409C82.0098 66.394 82.572 65.9061 83.2932 65.5773C84.0144 65.2379 84.8682 65.0682 85.8545 65.0682C86.5545 65.0682 87.2015 65.1584 87.7955 65.3387C88.3894 65.5084 88.9091 65.7629 89.3545 66.1023C89.8 66.4311 90.1447 66.8341 90.3886 67.3114C90.6432 67.7781 90.7758 68.3084 90.7864 68.9023C90.797 68.9978 90.7652 69.0773 90.6909 69.1409C90.6273 69.2046 90.5477 69.2364 90.4523 69.2364H88.3045C88.1667 69.2364 88.0606 69.2099 87.9864 69.1568C87.9121 69.0932 87.8485 68.9818 87.7955 68.8228C87.647 68.2606 87.403 67.8788 87.0636 67.6773C86.7348 67.4652 86.3265 67.3591 85.8386 67.3591C85.2553 67.3591 84.7939 67.5235 84.4545 67.8523C84.1152 68.1705 83.9295 68.7061 83.8977 69.4591C83.8659 70.3288 83.8659 71.2197 83.8977 72.1318C83.9295 72.8849 84.1152 73.4258 84.4545 73.7546C84.7939 74.0728 85.2553 74.2318 85.8386 74.2318C86.3265 74.2318 86.7402 74.1258 87.0795 73.9137C87.4189 73.7015 87.6576 73.3197 87.7955 72.7682C87.8379 72.6091 87.8962 72.5031 87.9705 72.45C88.0553 72.3864 88.1667 72.3546 88.3045 72.3546H90.4523C90.5477 72.3546 90.6273 72.3864 90.6909 72.45C90.7652 72.5137 90.797 72.5932 90.7864 72.6887C90.7758 73.2826 90.6432 73.8182 90.3886 74.2955C90.1447 74.7621 89.8 75.1652 89.3545 75.5046C88.9091 75.8334 88.3894 76.0879 87.7955 76.2682C87.2015 76.4379 86.5545 76.5228 85.8545 76.5228Z" fill="#F5F5F5"/>
<path d="M74.234 76.3637C74.1279 76.3637 74.0324 76.3265 73.9476 76.2523C73.8734 76.1781 73.8362 76.0826 73.8362 75.9659V72.5455L70.1453 65.7364C70.1347 65.7046 70.1241 65.6781 70.1135 65.6568C70.1029 65.625 70.0976 65.5932 70.0976 65.5614C70.0976 65.4765 70.1294 65.4023 70.1931 65.3387C70.2673 65.2644 70.3521 65.2273 70.4476 65.2273H72.4362C72.5953 65.2273 72.7173 65.2697 72.8021 65.3546C72.8976 65.4288 72.9559 65.4977 72.9771 65.5614L75.268 69.6659L77.559 65.5614C77.5908 65.4977 77.6491 65.4288 77.734 65.3546C77.8294 65.2697 77.9567 65.2273 78.1158 65.2273H80.1044C80.1999 65.2273 80.2794 65.2644 80.343 65.3387C80.4067 65.4023 80.4385 65.4765 80.4385 65.5614C80.4385 65.5932 80.4332 65.625 80.4226 65.6568C80.4226 65.6781 80.4173 65.7046 80.4067 65.7364L76.6999 72.5455V75.9659C76.6999 76.0826 76.6627 76.1781 76.5885 76.2523C76.5143 76.3265 76.4188 76.3637 76.3021 76.3637H74.234Z" fill="#F5F5F5"/>
<path d="M58.2111 76.3637C58.1051 76.3637 58.0096 76.3265 57.9248 76.2523C57.8505 76.1781 57.8134 76.0826 57.8134 75.9659V65.625C57.8134 65.5084 57.8505 65.4129 57.9248 65.3387C58.0096 65.2644 58.1051 65.2273 58.2111 65.2273H59.9293C60.099 65.2273 60.2263 65.275 60.3111 65.3705C60.4066 65.4553 60.4649 65.5243 60.4861 65.5773L63.2861 70.6046L66.0861 65.5773C66.118 65.5243 66.171 65.4553 66.2452 65.3705C66.3301 65.275 66.4627 65.2273 66.643 65.2273H68.3452C68.4619 65.2273 68.5574 65.2644 68.6316 65.3387C68.7164 65.4129 68.7589 65.5084 68.7589 65.625V75.9659C68.7589 76.0826 68.7164 76.1781 68.6316 76.2523C68.5574 76.3265 68.4619 76.3637 68.3452 76.3637H66.4521C66.3354 76.3637 66.2346 76.3265 66.1498 76.2523C66.0755 76.1781 66.0384 76.0826 66.0384 75.9659V70L64.2407 73.325C64.1983 73.4205 64.1346 73.5053 64.0498 73.5796C63.9649 73.6538 63.8483 73.6909 63.6998 73.6909H62.8725C62.724 73.6909 62.6074 73.6538 62.5225 73.5796C62.4377 73.5053 62.3687 73.4205 62.3157 73.325L60.518 70V75.9659C60.518 76.0826 60.4808 76.1781 60.4066 76.2523C60.3324 76.3265 60.2369 76.3637 60.1202 76.3637H58.2111Z" fill="#F5F5F5"/>
<path d="M98.7268 75.9415C98.3854 76.761 97.5317 78.0244 96.8488 78.7756C95.5854 80.0732 85.8195 89.1561 79.639 94.722C77.8293 96.361 76.2585 97.9317 76.1561 98.1707C75.9512 98.7512 80.1854 102.951 83.2927 105.205C86.2975 107.39 91.7268 110.054 95.0732 110.976C98.1463 111.795 102.654 112.171 105.727 111.863L107.98 111.624L108.834 109.678C110.337 106.332 110.78 103.839 110.815 99.1268C110.815 95.3366 110.507 92.5707 109.927 90.8976C109.824 90.6244 108.595 91.4439 106.615 93.0488L103.439 95.6439L102.995 98.7171C102.585 101.688 101.663 104.556 100.707 106.059C100.229 106.776 99.9219 106.81 97.6 106.366L96.8488 106.195L97.6683 103.941C98.6244 101.38 99.4097 95.9171 99.0341 94.4829L98.7951 93.5268L94.6975 93.7659L90.5658 94.0049L94.9366 88.5073C97.3268 85.4683 99.4097 82.9756 99.5122 82.9756C99.7171 82.9756 101.117 86.6634 102.278 90.3854C102.722 91.7512 103.2 92.878 103.371 92.878C103.815 92.878 106.683 90.7268 107.844 89.4976L108.834 88.4732L107.912 85.9805C107.434 84.6146 106.376 82.4293 105.59 81.0976C104.224 78.8098 100.332 74.439 99.6829 74.439C99.478 74.439 99.0683 75.122 98.7268 75.9415ZM94.3902 98.9902C94.3902 99.161 93.9463 100.322 93.3658 101.551L92.3414 103.839L91.4195 103.224C89.8829 102.268 86.5024 99.6049 86.6732 99.4683C86.7756 99.3659 90.2244 99.0244 93.8097 98.7171C94.1171 98.7171 94.3902 98.8195 94.3902 98.9902Z" fill="white"/>
</svg>
